<svg xmlns="http://www.w3.org/2000/svg" width="200" height="70" viewBox="0 0 200 41.262"><defs><style>.a{fill:#2e7df2;}.b{fill:#123262;}</style></defs><path class="a" d="M46.293,33.743A13.137,13.137,0,1,1,59.15,19.7v.272h7.41v-.317A20.417,20.417,0,0,0,46.293,0c-.491,0-.982,0-1.473.045H0V6.794H12.946v33.97h7.232V6.794H31.249a20.751,20.751,0,0,0,1.384,29.123,20.193,20.193,0,0,0,13.66,5.345H47.32V33.743Z"/><path class="a" d="M123.961,59.6,120.3,64.265l10,8.424,3.661-4.575Z" transform="translate(-66.596 -32.606)"/><path class="b" d="M192.442,45.97a6.623,6.623,0,0,1-5.268-2.174,9,9,0,0,1-1.92-6.024V22.281H180.3v-1.9h4.955V12h2.053v8.379h9.107v1.9h-9.107V37.364a7.833,7.833,0,0,0,1.339,5.027,4.931,4.931,0,0,0,4.062,1.631,7.65,7.65,0,0,0,1.741-.226,13.642,13.642,0,0,0,1.92-.634l.446,1.857a10.409,10.409,0,0,1-4.375.951Zm28.883-5.345a7.592,7.592,0,0,1-3.125,4.167,11.278,11.278,0,0,1-5.937,1.268,9.434,9.434,0,0,1-6.875-2.4c-1.607-1.585-2.455-3.986-2.455-7.156V29.709c0-3.261.848-5.662,2.589-7.292a10.65,10.65,0,0,1,13.526.045c1.7,1.631,2.545,4.122,2.545,7.519v3.261H205.031V36.5c0,2.672.58,4.62,1.786,5.843s2.991,1.812,5.446,1.812a8.495,8.495,0,0,0,4.732-1,6.938,6.938,0,0,0,2.321-3.216l2.009.679ZM205.031,29.709v1.766H219.5v-1.4c0-2.808-.625-4.892-1.83-6.205s-3.036-1.948-5.446-1.948a7.092,7.092,0,0,0-5.4,1.9c-1.161,1.268-1.786,3.216-1.786,5.888Zm41.74,15.9H229.807V43.7L244.45,22.281H229.807v-1.9h16.964v1.9L232.084,43.7h14.687Zm17.544.408c-2.991,0-5.312-.815-6.919-2.446s-2.411-3.986-2.411-7.066V29.709q0-4.688,2.411-7.2c1.607-1.676,3.928-2.491,6.919-2.491s5.268.815,6.875,2.491,2.411,4.076,2.411,7.2V36.5q0,4.62-2.411,7.066C269.627,45.2,267.306,46.015,264.315,46.015Zm0-1.857c2.5,0,4.33-.634,5.491-1.857s1.741-3.17,1.741-5.8V29.709c0-2.672-.58-4.62-1.741-5.888s-2.991-1.9-5.491-1.9-4.33.634-5.491,1.9-1.741,3.216-1.741,5.888V36.5c0,2.627.58,4.529,1.741,5.8C259.985,43.524,261.815,44.158,264.315,44.158Zm26.74,1.857a19.423,19.423,0,0,1-5.8-.906,15.821,15.821,0,0,1-5.134-2.808l1.071-1.721a15.047,15.047,0,0,0,9.821,3.578,8.146,8.146,0,0,0,4.911-1.313,4.17,4.17,0,0,0,1.786-3.578A3.706,3.706,0,0,0,296.1,35.96c-1.071-.725-3.125-1.359-6.161-1.948-3.17-.589-5.491-1.449-6.875-2.536a5.4,5.4,0,0,1-2.1-4.484,6.43,6.43,0,0,1,2.187-5.073,8.4,8.4,0,0,1,5.714-1.9,14.323,14.323,0,0,1,5.134.951,17.6,17.6,0,0,1,4.553,2.627l-.982,1.631a17.808,17.808,0,0,0-4.107-2.4,11.62,11.62,0,0,0-4.6-.951,6.473,6.473,0,0,0-4.286,1.268,4.194,4.194,0,0,0-1.562,3.442,4.091,4.091,0,0,0,1.607,3.578q1.607,1.155,6.161,1.9c3.214.544,5.491,1.359,6.919,2.446a5.368,5.368,0,0,1,2.1,4.529,6.174,6.174,0,0,1-2.411,5.073A9.824,9.824,0,0,1,291.055,46.015Z" transform="translate(-99.812 -6.565)"/></svg>