<svg xmlns="http://www.w3.org/2000/svg" viewBox="0 0 400 101.01694915254238" height="70px" width="135px">
    <g>
        <path d="M341.458 0.113 C 340.748 0.150,340.167 0.253,340.167 0.340 C 340.167 0.428,339.717 0.500,339.167 0.500 C 338.611 0.500,338.167 0.574,338.167 0.667 C 338.167 0.758,337.792 0.833,337.333 0.833 C 336.875 0.833,336.500 0.908,336.500 1.000 C 336.500 1.092,336.200 1.167,335.833 1.167 C 335.467 1.167,335.167 1.242,335.167 1.333 C 335.167 1.425,334.867 1.500,334.500 1.500 C 334.133 1.500,333.833 1.575,333.833 1.667 C 333.833 1.758,333.613 1.833,333.343 1.833 C 333.074 1.833,332.807 1.908,332.750 2.000 C 332.693 2.092,332.426 2.167,332.157 2.167 C 331.887 2.167,331.667 2.242,331.667 2.333 C 331.667 2.425,331.484 2.500,331.260 2.500 C 331.036 2.500,330.807 2.575,330.750 2.667 C 330.693 2.758,330.479 2.833,330.273 2.833 C 330.068 2.833,329.829 2.895,329.742 2.971 C 329.655 3.047,329.257 3.211,328.857 3.337 C 328.458 3.462,328.094 3.663,328.048 3.783 C 328.002 3.902,327.789 4.000,327.575 4.000 C 327.361 4.000,327.140 4.075,327.083 4.167 C 327.027 4.258,326.835 4.333,326.657 4.333 C 326.479 4.333,326.333 4.408,326.333 4.500 C 326.333 4.592,326.183 4.667,326.000 4.667 C 325.817 4.667,325.667 4.742,325.667 4.833 C 325.667 4.925,325.517 5.000,325.333 5.000 C 325.150 5.000,325.000 5.075,325.000 5.167 C 325.000 5.258,324.850 5.333,324.667 5.333 C 324.483 5.333,324.333 5.408,324.333 5.500 C 324.333 5.592,324.236 5.667,324.117 5.667 C 323.810 5.667,323.003 6.059,323.001 6.208 C 323.001 6.277,322.850 6.333,322.667 6.333 C 322.483 6.333,322.333 6.408,322.333 6.500 C 322.333 6.592,322.221 6.667,322.083 6.667 C 321.946 6.667,321.833 6.742,321.833 6.833 C 321.833 6.925,321.683 7.000,321.500 7.000 C 321.317 7.000,321.167 7.075,321.167 7.167 C 321.167 7.258,321.068 7.333,320.948 7.333 C 320.828 7.333,320.569 7.483,320.372 7.667 C 320.175 7.850,319.915 8.000,319.794 8.000 C 319.673 8.000,319.465 8.150,319.333 8.333 C 319.201 8.517,318.976 8.667,318.833 8.667 C 318.690 8.667,318.465 8.817,318.333 9.000 C 318.201 9.183,318.008 9.333,317.905 9.333 C 317.801 9.333,317.481 9.558,317.193 9.833 C 316.905 10.108,316.603 10.333,316.522 10.333 C 316.440 10.333,316.083 10.615,315.728 10.959 C 315.374 11.303,314.821 11.766,314.500 11.987 C 313.786 12.479,309.000 17.302,309.000 17.529 C 309.000 17.619,308.700 17.981,308.333 18.333 C 307.967 18.686,307.667 19.055,307.667 19.155 C 307.667 19.255,307.442 19.572,307.167 19.860 C 306.892 20.147,306.667 20.468,306.667 20.571 C 306.667 20.675,306.517 20.868,306.333 21.000 C 306.150 21.132,306.000 21.357,306.000 21.500 C 306.000 21.643,305.850 21.868,305.667 22.000 C 305.483 22.132,305.333 22.374,305.333 22.537 C 305.333 22.700,305.258 22.833,305.167 22.833 C 305.075 22.833,305.000 22.946,305.000 23.083 C 305.000 23.221,304.925 23.333,304.833 23.333 C 304.742 23.333,304.667 23.446,304.667 23.583 C 304.667 23.721,304.592 23.833,304.500 23.833 C 304.408 23.833,304.333 23.993,304.333 24.189 C 304.333 24.384,304.193 24.666,304.021 24.815 C 303.850 24.964,303.278 25.947,302.751 27.001 C 302.224 28.055,301.727 29.047,301.646 29.206 C 301.566 29.365,301.500 29.609,301.500 29.748 C 301.500 29.886,301.425 30.000,301.333 30.000 C 301.242 30.000,301.167 30.146,301.167 30.323 C 301.167 30.501,301.092 30.693,301.000 30.750 C 300.908 30.807,300.833 31.036,300.833 31.260 C 300.833 31.484,300.758 31.667,300.667 31.667 C 300.575 31.667,300.500 31.892,300.500 32.167 C 300.500 32.442,300.425 32.667,300.333 32.667 C 300.242 32.667,300.167 32.892,300.167 33.167 C 300.167 33.442,300.092 33.667,300.000 33.667 C 299.908 33.667,299.833 33.929,299.833 34.250 C 299.833 34.571,299.758 34.833,299.667 34.833 C 299.575 34.833,299.500 35.058,299.500 35.333 C 299.500 35.608,299.425 35.833,299.333 35.833 C 299.242 35.833,299.167 36.133,299.167 36.500 C 299.167 36.867,299.092 37.167,299.000 37.167 C 298.908 37.167,298.833 37.467,298.833 37.833 C 298.833 38.200,298.758 38.500,298.667 38.500 C 298.575 38.500,298.500 38.871,298.500 39.323 C 298.500 39.776,298.425 40.193,298.333 40.250 C 298.242 40.307,298.167 40.757,298.167 41.250 C 298.167 41.743,298.092 42.193,298.000 42.250 C 297.908 42.307,297.833 43.024,297.833 43.843 C 297.833 44.726,297.765 45.333,297.667 45.333 C 297.559 45.333,297.500 47.111,297.500 50.333 C 297.500 53.556,297.559 55.333,297.667 55.333 C 297.765 55.333,297.833 55.941,297.833 56.823 C 297.833 57.643,297.908 58.360,298.000 58.417 C 298.092 58.473,298.167 58.965,298.167 59.510 C 298.167 60.059,298.241 60.500,298.333 60.500 C 298.425 60.500,298.500 60.875,298.500 61.333 C 298.500 61.792,298.575 62.167,298.667 62.167 C 298.758 62.167,298.833 62.467,298.833 62.833 C 298.833 63.200,298.908 63.500,299.000 63.500 C 299.092 63.500,299.167 63.800,299.167 64.167 C 299.167 64.533,299.242 64.833,299.333 64.833 C 299.425 64.833,299.500 65.091,299.500 65.407 C 299.500 65.722,299.575 66.027,299.667 66.083 C 299.758 66.140,299.833 66.407,299.833 66.677 C 299.833 66.946,299.908 67.167,300.000 67.167 C 300.092 67.167,300.167 67.350,300.167 67.573 C 300.167 67.797,300.242 68.027,300.333 68.083 C 300.425 68.140,300.500 68.369,300.500 68.593 C 300.500 68.817,300.575 69.000,300.667 69.000 C 300.758 69.000,300.833 69.225,300.833 69.500 C 300.833 69.775,300.908 70.000,301.000 70.000 C 301.092 70.000,301.167 70.150,301.167 70.333 C 301.167 70.517,301.242 70.667,301.333 70.667 C 301.425 70.667,301.500 70.850,301.500 71.073 C 301.500 71.297,301.575 71.527,301.667 71.583 C 301.758 71.640,301.833 71.832,301.833 72.010 C 301.833 72.188,301.908 72.333,302.000 72.333 C 302.092 72.333,302.167 72.483,302.167 72.667 C 302.167 72.850,302.242 73.000,302.333 73.000 C 302.425 73.000,302.500 73.150,302.500 73.333 C 302.500 73.517,302.575 73.667,302.667 73.667 C 302.758 73.667,302.833 73.817,302.833 74.000 C 302.833 74.183,302.891 74.333,302.961 74.333 C 303.031 74.333,303.218 74.633,303.377 75.000 C 303.536 75.367,303.727 75.667,303.802 75.667 C 303.877 75.667,304.041 75.929,304.167 76.250 C 304.293 76.571,304.457 76.833,304.531 76.833 C 304.606 76.833,304.667 76.983,304.667 77.167 C 304.667 77.350,304.742 77.500,304.833 77.500 C 304.925 77.500,305.000 77.612,305.000 77.750 C 305.000 77.887,305.075 78.000,305.167 78.000 C 305.258 78.000,305.333 78.112,305.333 78.250 C 305.333 78.387,305.408 78.500,305.500 78.500 C 305.592 78.500,305.667 78.612,305.667 78.750 C 305.667 78.887,305.742 79.000,305.833 79.000 C 305.925 79.000,306.000 79.112,306.000 79.250 C 306.000 79.387,306.062 79.500,306.139 79.500 C 306.215 79.500,306.383 79.706,306.512 79.958 C 306.642 80.210,306.879 80.538,307.041 80.686 C 307.202 80.834,307.333 81.032,307.333 81.124 C 307.333 81.217,307.633 81.602,308.000 81.980 C 308.367 82.358,308.667 82.741,308.667 82.832 C 308.667 83.055,314.736 89.167,314.957 89.167 C 315.053 89.167,315.489 89.504,315.926 89.917 C 316.362 90.329,316.804 90.667,316.906 90.667 C 317.009 90.667,317.201 90.817,317.333 91.000 C 317.465 91.183,317.651 91.334,317.745 91.334 C 317.839 91.334,318.179 91.559,318.500 91.833 C 318.821 92.108,319.143 92.333,319.215 92.333 C 319.288 92.333,319.508 92.483,319.705 92.667 C 319.902 92.850,320.161 93.000,320.281 93.000 C 320.402 93.000,320.500 93.075,320.500 93.167 C 320.500 93.258,320.616 93.333,320.757 93.333 C 320.898 93.333,321.175 93.483,321.372 93.667 C 321.569 93.850,321.828 94.000,321.948 94.000 C 322.068 94.000,322.167 94.075,322.167 94.167 C 322.167 94.258,322.317 94.333,322.500 94.333 C 322.683 94.333,322.833 94.408,322.833 94.500 C 322.833 94.592,322.983 94.667,323.167 94.667 C 323.350 94.667,323.500 94.742,323.500 94.833 C 323.500 94.925,323.610 95.000,323.745 95.000 C 323.880 95.000,324.257 95.150,324.583 95.333 C 324.910 95.517,325.287 95.667,325.422 95.667 C 325.556 95.667,325.667 95.779,325.667 95.917 C 325.667 96.056,325.815 96.167,326.000 96.167 C 326.183 96.167,326.333 96.242,326.333 96.333 C 326.333 96.425,326.432 96.500,326.552 96.500 C 326.672 96.500,327.081 96.650,327.461 96.833 C 327.840 97.017,328.267 97.167,328.409 97.167 C 328.551 97.167,328.667 97.228,328.667 97.303 C 328.667 97.378,329.046 97.543,329.511 97.670 C 329.975 97.796,330.392 97.959,330.437 98.033 C 330.482 98.107,330.698 98.167,330.917 98.167 C 331.135 98.167,331.360 98.242,331.417 98.333 C 331.473 98.425,331.698 98.500,331.917 98.500 C 332.135 98.500,332.360 98.575,332.417 98.667 C 332.473 98.758,332.736 98.833,333.000 98.833 C 333.264 98.833,333.527 98.908,333.583 99.000 C 333.640 99.092,333.944 99.167,334.260 99.167 C 334.575 99.167,334.833 99.242,334.833 99.333 C 334.833 99.425,335.133 99.500,335.500 99.500 C 335.867 99.500,336.167 99.575,336.167 99.667 C 336.167 99.758,336.542 99.833,337.000 99.833 C 337.458 99.833,337.833 99.908,337.833 100.000 C 337.833 100.092,338.204 100.167,338.657 100.167 C 339.110 100.167,339.527 100.242,339.583 100.333 C 339.640 100.425,340.192 100.500,340.810 100.500 C 341.455 100.500,342.018 100.584,342.131 100.698 C 342.414 100.980,355.202 100.978,355.296 100.696 C 355.337 100.571,355.777 100.500,356.504 100.500 C 357.133 100.500,357.693 100.425,357.750 100.333 C 357.807 100.242,358.219 100.167,358.667 100.167 C 359.114 100.167,359.527 100.092,359.583 100.000 C 359.640 99.908,360.019 99.833,360.427 99.833 C 360.834 99.833,361.167 99.758,361.167 99.667 C 361.167 99.575,361.467 99.500,361.833 99.500 C 362.200 99.500,362.500 99.425,362.500 99.333 C 362.500 99.242,362.800 99.167,363.167 99.167 C 363.533 99.167,363.833 99.092,363.833 99.000 C 363.833 98.908,364.058 98.833,364.333 98.833 C 364.608 98.833,364.833 98.758,364.833 98.667 C 364.833 98.575,365.054 98.500,365.323 98.500 C 365.593 98.500,365.860 98.425,365.917 98.333 C 365.973 98.242,366.198 98.167,366.417 98.167 C 366.635 98.167,366.860 98.092,366.917 98.000 C 366.973 97.908,367.166 97.833,367.345 97.833 C 367.525 97.833,367.801 97.767,367.961 97.686 C 368.120 97.605,368.475 97.446,368.750 97.333 C 369.025 97.220,369.380 97.062,369.539 96.981 C 369.699 96.900,369.942 96.833,370.081 96.833 C 370.220 96.833,370.333 96.758,370.333 96.667 C 370.333 96.575,370.443 96.500,370.578 96.500 C 370.916 96.500,372.000 95.968,372.000 95.802 C 372.000 95.728,372.150 95.667,372.333 95.667 C 372.517 95.667,372.667 95.592,372.667 95.500 C 372.667 95.408,372.817 95.333,373.000 95.333 C 373.183 95.333,373.333 95.258,373.333 95.167 C 373.333 95.075,373.483 95.000,373.667 95.000 C 373.850 95.000,374.000 94.939,374.000 94.864 C 374.000 94.790,374.262 94.626,374.583 94.500 C 374.904 94.374,375.167 94.210,375.167 94.136 C 375.167 94.061,375.317 94.000,375.500 94.000 C 375.683 94.000,375.833 93.925,375.833 93.833 C 375.833 93.742,375.932 93.667,376.052 93.667 C 376.172 93.667,376.431 93.517,376.628 93.333 C 376.825 93.150,377.085 93.000,377.206 93.000 C 377.327 93.000,377.535 92.850,377.667 92.667 C 377.799 92.483,378.024 92.333,378.167 92.333 C 378.310 92.333,378.535 92.183,378.667 92.000 C 378.799 91.817,379.024 91.667,379.167 91.667 C 379.310 91.667,379.535 91.517,379.667 91.333 C 379.799 91.150,379.994 91.000,380.100 91.000 C 380.206 91.000,380.602 90.700,380.980 90.333 C 381.358 89.967,381.733 89.667,381.813 89.667 C 382.225 89.667,388.703 83.199,389.176 82.316 C 389.279 82.123,389.582 81.737,389.849 81.458 C 390.115 81.179,390.333 80.886,390.333 80.807 C 390.333 80.728,390.558 80.428,390.833 80.140 C 391.108 79.853,391.333 79.516,391.333 79.392 C 391.333 79.268,391.408 79.167,391.500 79.167 C 391.592 79.167,391.667 79.054,391.667 78.917 C 391.667 78.779,391.742 78.667,391.833 78.667 C 391.925 78.667,392.000 78.560,392.000 78.431 C 392.000 78.301,392.056 78.169,392.125 78.139 C 392.281 78.069,392.823 77.182,392.946 76.792 C 392.997 76.631,393.105 76.500,393.186 76.500 C 393.267 76.500,393.333 76.329,393.333 76.120 C 393.333 75.911,393.483 75.632,393.667 75.500 C 393.850 75.368,394.000 75.126,394.000 74.963 C 394.000 74.800,394.075 74.667,394.167 74.667 C 394.258 74.667,394.333 74.517,394.333 74.333 C 394.333 74.150,394.408 74.000,394.500 74.000 C 394.592 74.000,394.667 73.850,394.667 73.667 C 394.667 73.483,394.728 73.333,394.802 73.333 C 394.968 73.333,395.500 72.249,395.500 71.911 C 395.500 71.777,395.575 71.667,395.667 71.667 C 395.758 71.667,395.833 71.556,395.833 71.422 C 395.833 71.287,395.983 70.910,396.167 70.583 C 396.350 70.257,396.500 69.842,396.500 69.662 C 396.500 69.481,396.575 69.333,396.667 69.333 C 396.758 69.333,396.833 69.150,396.833 68.927 C 396.833 68.703,396.908 68.473,397.000 68.417 C 397.092 68.360,397.167 68.135,397.167 67.917 C 397.167 67.698,397.242 67.473,397.333 67.417 C 397.425 67.360,397.500 67.131,397.500 66.907 C 397.500 66.683,397.575 66.500,397.667 66.500 C 397.758 66.500,397.833 66.200,397.833 65.833 C 397.833 65.467,397.908 65.167,398.000 65.167 C 398.092 65.167,398.167 64.946,398.167 64.677 C 398.167 64.407,398.242 64.140,398.333 64.083 C 398.425 64.027,398.500 63.689,398.500 63.333 C 398.500 62.977,398.575 62.640,398.667 62.583 C 398.758 62.527,398.833 62.185,398.833 61.823 C 398.833 61.462,398.908 61.167,399.000 61.167 C 399.093 61.167,399.167 60.722,399.167 60.167 C 399.167 59.611,399.241 59.167,399.333 59.167 C 399.429 59.167,399.500 58.644,399.500 57.931 C 399.500 57.229,399.574 56.670,399.672 56.637 C 399.910 56.558,399.910 44.344,399.672 44.106 C 399.578 44.011,399.500 43.428,399.500 42.810 C 399.500 42.192,399.425 41.640,399.333 41.583 C 399.242 41.527,399.167 41.077,399.167 40.583 C 399.167 40.090,399.092 39.640,399.000 39.583 C 398.908 39.527,398.833 39.185,398.833 38.823 C 398.833 38.462,398.758 38.167,398.667 38.167 C 398.575 38.167,398.500 37.871,398.500 37.510 C 398.500 37.149,398.425 36.807,398.333 36.750 C 398.242 36.693,398.167 36.389,398.167 36.073 C 398.167 35.758,398.092 35.500,398.000 35.500 C 397.908 35.500,397.832 35.331,397.831 35.125 C 397.828 34.718,397.466 33.577,397.281 33.392 C 397.218 33.329,397.167 33.107,397.167 32.899 C 397.167 32.690,397.092 32.473,397.000 32.417 C 396.908 32.360,396.833 32.167,396.833 31.988 C 396.833 31.809,396.767 31.532,396.686 31.373 C 396.605 31.214,396.466 30.896,396.376 30.667 C 396.287 30.438,396.053 29.924,395.857 29.526 C 395.661 29.128,395.500 28.696,395.500 28.568 C 395.500 28.439,395.425 28.333,395.333 28.333 C 395.242 28.333,395.167 28.189,395.167 28.012 C 395.167 27.835,395.073 27.589,394.958 27.465 C 394.672 27.156,394.166 26.312,394.054 25.958 C 394.003 25.798,393.895 25.667,393.814 25.667 C 393.733 25.667,393.667 25.517,393.667 25.333 C 393.667 25.150,393.592 25.000,393.500 25.000 C 393.408 25.000,393.333 24.850,393.333 24.667 C 393.333 24.483,393.258 24.333,393.167 24.333 C 393.075 24.333,393.000 24.183,393.000 24.000 C 393.000 23.817,392.925 23.667,392.833 23.667 C 392.742 23.667,392.667 23.554,392.667 23.417 C 392.667 23.279,392.592 23.167,392.500 23.167 C 392.408 23.167,392.333 23.033,392.333 22.870 C 392.333 22.707,392.183 22.465,392.000 22.333 C 391.817 22.201,391.667 21.976,391.667 21.833 C 391.667 21.690,391.517 21.465,391.333 21.333 C 391.150 21.201,391.000 21.008,391.000 20.905 C 391.000 20.801,390.775 20.481,390.500 20.193 C 390.225 19.905,390.000 19.594,390.000 19.502 C 390.000 19.409,389.700 19.025,389.333 18.647 C 388.967 18.269,388.667 17.891,388.667 17.807 C 388.667 17.612,382.541 11.500,382.346 11.500 C 382.267 11.500,381.844 11.162,381.408 10.750 C 380.971 10.337,380.530 10.000,380.427 10.000 C 380.324 10.000,380.132 9.850,380.000 9.667 C 379.868 9.483,379.683 9.333,379.588 9.333 C 379.494 9.333,379.154 9.108,378.833 8.833 C 378.512 8.559,378.156 8.334,378.042 8.334 C 377.927 8.334,377.833 8.258,377.833 8.167 C 377.833 8.075,377.721 8.000,377.583 8.000 C 377.446 8.000,377.333 7.925,377.333 7.833 C 377.333 7.742,377.221 7.667,377.083 7.667 C 376.946 7.667,376.833 7.592,376.833 7.500 C 376.833 7.408,376.683 7.333,376.500 7.333 C 376.317 7.333,376.167 7.258,376.167 7.167 C 376.167 7.075,376.054 7.000,375.917 7.000 C 375.779 7.000,375.666 6.944,375.665 6.875 C 375.664 6.725,374.857 6.333,374.550 6.333 C 374.431 6.333,374.333 6.258,374.333 6.167 C 374.333 6.075,374.183 6.000,374.000 6.000 C 373.817 6.000,373.667 5.925,373.667 5.833 C 373.667 5.742,373.517 5.667,373.333 5.667 C 373.150 5.667,373.000 5.592,373.000 5.500 C 373.000 5.408,372.850 5.333,372.667 5.333 C 372.483 5.333,372.333 5.258,372.333 5.167 C 372.333 5.075,372.183 5.000,372.000 5.000 C 371.817 5.000,371.667 4.925,371.667 4.833 C 371.667 4.742,371.517 4.667,371.333 4.667 C 371.150 4.667,371.000 4.592,371.000 4.500 C 371.000 4.408,370.850 4.333,370.667 4.333 C 370.483 4.333,370.333 4.258,370.333 4.167 C 370.333 4.075,370.143 4.000,369.911 4.000 C 369.679 4.000,369.446 3.887,369.394 3.750 C 369.341 3.612,369.160 3.500,368.992 3.500 C 368.824 3.500,368.640 3.425,368.583 3.333 C 368.527 3.242,368.334 3.167,368.155 3.167 C 367.975 3.167,367.680 3.092,367.498 3.000 C 367.316 2.908,367.018 2.758,366.836 2.667 C 366.654 2.575,366.390 2.500,366.250 2.500 C 366.110 2.500,365.865 2.434,365.706 2.354 C 365.220 2.108,364.247 1.833,363.863 1.833 C 363.663 1.833,363.500 1.758,363.500 1.667 C 363.500 1.575,363.242 1.500,362.927 1.500 C 362.611 1.500,362.307 1.425,362.250 1.333 C 362.193 1.242,361.851 1.167,361.490 1.167 C 361.129 1.167,360.833 1.092,360.833 1.000 C 360.833 0.908,360.500 0.833,360.093 0.833 C 359.686 0.833,359.307 0.758,359.250 0.667 C 359.193 0.575,358.745 0.500,358.254 0.500 C 357.710 0.500,357.335 0.422,357.295 0.301 C 357.229 0.102,344.558 -0.048,341.458 0.113 M59.278 1.278 C 59.217 1.339,59.167 5.689,59.167 10.944 L 59.167 20.500 80.000 20.500 C 98.607 20.500,101.411 20.549,100.708 20.861 C 100.552 20.931,100.011 21.818,99.887 22.208 C 99.836 22.369,99.728 22.500,99.647 22.500 C 99.566 22.500,99.500 22.598,99.500 22.717 C 99.500 23.023,99.108 23.830,98.958 23.832 C 98.890 23.833,98.833 23.946,98.833 24.083 C 98.833 24.221,98.758 24.333,98.667 24.333 C 98.575 24.333,98.500 24.483,98.500 24.667 C 98.500 24.850,98.425 25.000,98.333 25.000 C 98.242 25.000,98.167 25.150,98.167 25.333 C 98.167 25.517,98.092 25.667,98.000 25.667 C 97.908 25.667,97.833 25.800,97.833 25.963 C 97.833 26.126,97.683 26.368,97.500 26.500 C 97.317 26.632,97.167 26.874,97.167 27.037 C 97.167 27.200,97.092 27.333,97.000 27.333 C 96.908 27.333,96.833 27.483,96.833 27.667 C 96.833 27.850,96.758 28.000,96.667 28.000 C 96.575 28.000,96.500 28.116,96.500 28.257 C 96.500 28.398,96.350 28.675,96.167 28.872 C 95.983 29.069,95.833 29.328,95.833 29.448 C 95.833 29.568,95.758 29.667,95.667 29.667 C 95.575 29.667,95.500 29.817,95.500 30.000 C 95.500 30.183,95.425 30.333,95.333 30.333 C 95.242 30.333,95.167 30.483,95.167 30.667 C 95.167 30.850,95.092 31.000,95.000 31.000 C 94.908 31.000,94.833 31.113,94.833 31.250 C 94.833 31.387,94.758 31.500,94.667 31.500 C 94.575 31.500,94.500 31.613,94.500 31.750 C 94.500 31.887,94.425 32.000,94.333 32.000 C 94.242 32.000,94.167 32.150,94.167 32.333 C 94.167 32.517,94.092 32.667,94.000 32.667 C 93.908 32.667,93.833 32.817,93.833 33.000 C 93.833 33.183,93.764 33.333,93.679 33.333 C 93.595 33.333,93.316 33.746,93.061 34.250 C 92.806 34.754,92.538 35.167,92.465 35.167 C 92.393 35.167,92.333 35.310,92.333 35.486 C 92.333 35.662,92.277 35.831,92.208 35.861 C 92.052 35.931,91.511 36.818,91.387 37.208 C 91.336 37.369,91.228 37.500,91.147 37.500 C 91.066 37.500,91.000 37.650,91.000 37.833 C 91.000 38.017,90.925 38.167,90.833 38.167 C 90.742 38.167,90.667 38.282,90.667 38.424 C 90.667 38.565,90.517 38.842,90.333 39.038 C 90.150 39.235,90.000 39.495,90.000 39.615 C 90.000 39.735,89.925 39.833,89.833 39.833 C 89.742 39.833,89.667 39.983,89.667 40.167 C 89.667 40.350,89.592 40.500,89.500 40.500 C 89.408 40.500,89.333 40.650,89.333 40.833 C 89.333 41.017,89.258 41.167,89.167 41.167 C 89.075 41.167,89.000 41.279,89.000 41.417 C 89.000 41.554,88.939 41.667,88.864 41.667 C 88.790 41.667,88.626 41.929,88.500 42.250 C 88.374 42.571,88.210 42.833,88.136 42.833 C 88.061 42.833,88.000 42.983,88.000 43.167 C 88.000 43.350,87.925 43.500,87.833 43.500 C 87.742 43.500,87.667 43.612,87.667 43.750 C 87.667 43.887,87.592 44.000,87.500 44.000 C 87.408 44.000,87.333 44.150,87.333 44.333 C 87.333 44.517,87.258 44.667,87.167 44.667 C 87.075 44.667,87.000 44.817,87.000 45.000 C 87.000 45.183,86.925 45.333,86.833 45.333 C 86.742 45.333,86.667 45.449,86.667 45.590 C 86.667 45.732,86.517 46.008,86.333 46.205 C 86.150 46.402,86.000 46.661,86.000 46.781 C 86.000 46.902,85.925 47.000,85.833 47.000 C 85.742 47.000,85.667 47.150,85.667 47.333 C 85.667 47.517,85.592 47.667,85.500 47.667 C 85.408 47.667,85.333 47.817,85.333 48.000 C 85.333 48.183,85.258 48.333,85.167 48.333 C 85.075 48.333,85.000 48.432,85.000 48.552 C 85.000 48.672,84.850 48.931,84.667 49.128 C 84.483 49.325,84.333 49.602,84.333 49.743 C 84.333 49.884,84.258 50.000,84.167 50.000 C 84.075 50.000,84.000 50.142,84.000 50.316 C 84.000 50.489,83.887 50.674,83.750 50.727 C 83.612 50.780,83.500 50.931,83.500 51.064 C 83.500 51.197,83.435 51.331,83.356 51.361 C 83.277 51.392,82.817 52.167,82.333 53.083 C 81.850 54.000,81.389 54.775,81.310 54.806 C 81.231 54.836,81.167 55.005,81.167 55.181 C 81.167 55.356,81.092 55.500,81.000 55.500 C 80.908 55.500,80.833 55.650,80.833 55.833 C 80.833 56.017,80.767 56.167,80.687 56.167 C 80.606 56.167,80.447 56.392,80.333 56.667 C 80.219 56.942,80.060 57.167,79.980 57.167 C 79.899 57.167,79.833 57.317,79.833 57.500 C 79.833 57.683,79.758 57.833,79.667 57.833 C 79.575 57.833,79.500 57.983,79.500 58.167 C 79.500 58.350,79.425 58.500,79.333 58.500 C 79.242 58.500,79.167 58.598,79.167 58.719 C 79.167 58.839,79.017 59.098,78.833 59.295 C 78.650 59.492,78.500 59.768,78.500 59.910 C 78.500 60.051,78.425 60.167,78.333 60.167 C 78.242 60.167,78.167 60.317,78.167 60.500 C 78.167 60.683,78.100 60.833,78.019 60.833 C 77.938 60.833,77.831 60.965,77.780 61.125 C 77.656 61.515,77.115 62.403,76.958 62.472 C 76.890 62.503,76.833 62.672,76.833 62.847 C 76.833 63.023,76.758 63.167,76.667 63.167 C 76.575 63.167,76.500 63.317,76.500 63.500 C 76.500 63.683,76.425 63.833,76.333 63.833 C 76.242 63.833,76.167 63.946,76.167 64.083 C 76.167 64.221,76.092 64.333,76.000 64.333 C 75.908 64.333,75.833 64.483,75.833 64.667 C 75.833 64.850,75.758 65.000,75.667 65.000 C 75.575 65.000,75.500 65.150,75.500 65.333 C 75.500 65.517,75.425 65.667,75.333 65.667 C 75.242 65.667,75.167 65.800,75.167 65.963 C 75.167 66.126,75.017 66.368,74.833 66.500 C 74.650 66.632,74.500 66.874,74.500 67.037 C 74.500 67.200,74.425 67.333,74.333 67.333 C 74.242 67.333,74.167 67.483,74.167 67.667 C 74.167 67.850,74.092 68.000,74.000 68.000 C 73.908 68.000,73.833 68.150,73.833 68.333 C 73.833 68.517,73.734 68.667,73.612 68.667 C 73.490 68.667,73.215 69.042,73.000 69.500 C 72.785 69.958,72.548 70.333,72.472 70.333 C 72.396 70.333,72.333 70.483,72.333 70.667 C 72.333 70.850,72.277 71.001,72.208 71.001 C 72.140 71.002,72.000 71.171,71.898 71.376 C 71.205 72.771,70.565 73.925,70.458 73.972 C 70.390 74.003,70.333 74.134,70.333 74.264 C 70.333 74.394,70.258 74.500,70.167 74.500 C 70.075 74.500,70.000 74.650,70.000 74.833 C 70.000 75.017,69.925 75.167,69.833 75.167 C 69.742 75.167,69.667 75.317,69.667 75.500 C 69.667 75.683,69.592 75.833,69.500 75.833 C 69.408 75.833,69.333 75.967,69.333 76.130 C 69.333 76.293,69.183 76.535,69.000 76.667 C 68.817 76.799,68.667 77.040,68.667 77.203 C 68.667 77.367,68.592 77.500,68.500 77.500 C 68.408 77.500,68.333 77.650,68.333 77.833 C 68.333 78.017,68.258 78.167,68.167 78.167 C 68.075 78.167,68.000 78.282,68.000 78.424 C 68.000 78.565,67.850 78.842,67.667 79.038 C 67.483 79.235,67.333 79.495,67.333 79.615 C 67.333 79.735,67.258 79.833,67.167 79.833 C 67.075 79.833,67.000 79.983,67.000 80.167 C 67.000 80.350,66.925 80.500,66.833 80.500 C 66.742 80.500,66.667 80.650,66.667 80.833 C 66.667 81.017,66.592 81.167,66.500 81.167 C 66.408 81.167,66.333 81.279,66.333 81.417 C 66.333 81.554,66.258 81.667,66.167 81.667 C 66.075 81.667,66.000 81.779,66.000 81.917 C 66.000 82.054,65.925 82.167,65.833 82.167 C 65.742 82.167,65.667 82.317,65.667 82.500 C 65.667 82.683,65.592 82.833,65.500 82.833 C 65.408 82.833,65.333 82.983,65.333 83.167 C 65.333 83.350,65.258 83.500,65.167 83.500 C 65.075 83.500,65.000 83.612,65.000 83.750 C 65.000 83.887,64.944 84.001,64.875 84.001 C 64.725 84.003,64.333 84.810,64.333 85.117 C 64.333 85.236,64.258 85.333,64.167 85.333 C 64.075 85.333,64.000 85.483,64.000 85.667 C 64.000 85.850,63.906 86.001,63.792 86.001 C 63.677 86.002,63.505 86.171,63.410 86.376 C 63.049 87.152,62.412 88.252,62.292 88.306 C 62.223 88.336,62.167 88.505,62.167 88.681 C 62.167 88.856,62.103 89.000,62.026 89.000 C 61.949 89.000,61.705 89.356,61.485 89.792 C 61.264 90.227,61.027 90.608,60.958 90.639 C 60.890 90.669,60.833 90.838,60.833 91.014 C 60.833 91.190,60.770 91.333,60.693 91.333 C 60.616 91.333,60.372 91.690,60.151 92.125 C 59.931 92.560,59.694 92.942,59.625 92.972 C 59.556 93.003,59.500 93.172,59.500 93.347 C 59.500 93.523,59.439 93.667,59.364 93.667 C 59.290 93.667,59.126 93.929,59.000 94.250 C 58.874 94.571,58.710 94.833,58.636 94.833 C 58.561 94.833,58.500 94.983,58.500 95.167 C 58.500 95.350,58.425 95.500,58.333 95.500 C 58.242 95.500,58.167 95.616,58.167 95.757 C 58.167 95.898,58.017 96.175,57.833 96.372 C 57.650 96.569,57.500 96.828,57.500 96.948 C 57.500 97.068,57.425 97.167,57.333 97.167 C 57.242 97.167,57.167 97.317,57.167 97.500 C 57.167 97.683,57.092 97.833,57.000 97.833 C 56.908 97.833,56.833 97.983,56.833 98.167 C 56.833 98.350,56.758 98.500,56.667 98.500 C 56.575 98.500,56.500 98.650,56.500 98.833 C 56.500 99.166,56.611 99.167,95.833 99.167 L 135.167 99.167 135.167 89.500 L 135.167 79.833 113.739 79.833 L 92.311 79.833 92.655 79.349 C 92.845 79.083,93.000 78.783,93.000 78.683 C 93.000 78.582,93.075 78.500,93.167 78.500 C 93.258 78.500,93.333 78.350,93.333 78.167 C 93.333 77.983,93.408 77.833,93.500 77.833 C 93.592 77.833,93.667 77.683,93.667 77.500 C 93.667 77.317,93.742 77.167,93.833 77.167 C 93.925 77.167,94.000 77.017,94.000 76.833 C 94.000 76.650,94.075 76.500,94.167 76.500 C 94.258 76.500,94.333 76.387,94.333 76.250 C 94.333 76.112,94.408 76.000,94.500 76.000 C 94.592 76.000,94.667 75.850,94.667 75.667 C 94.667 75.483,94.730 75.333,94.807 75.333 C 94.883 75.333,95.090 75.034,95.265 74.669 C 95.440 74.303,95.640 74.003,95.708 74.002 C 95.777 74.001,95.833 73.850,95.833 73.667 C 95.833 73.483,95.908 73.333,96.000 73.333 C 96.092 73.333,96.167 73.183,96.167 73.000 C 96.167 72.817,96.227 72.667,96.301 72.667 C 96.374 72.667,96.618 72.293,96.842 71.836 C 97.066 71.379,97.306 71.004,97.375 71.003 C 97.444 71.001,97.500 70.850,97.500 70.667 C 97.500 70.483,97.575 70.333,97.667 70.333 C 97.758 70.333,97.833 70.183,97.833 70.000 C 97.833 69.817,97.890 69.666,97.958 69.665 C 98.027 69.665,98.166 69.496,98.267 69.290 C 98.759 68.287,99.263 67.411,99.375 67.361 C 99.444 67.331,99.500 67.198,99.500 67.067 C 99.500 66.834,99.822 66.165,100.013 66.000 C 100.067 65.954,100.216 65.673,100.346 65.375 C 100.475 65.077,100.638 64.833,100.707 64.833 C 100.777 64.833,100.833 64.683,100.833 64.500 C 100.833 64.317,100.908 64.167,101.000 64.167 C 101.092 64.167,101.167 64.017,101.167 63.833 C 101.167 63.650,101.242 63.500,101.333 63.500 C 101.425 63.500,101.500 63.350,101.500 63.167 C 101.500 62.983,101.575 62.833,101.667 62.833 C 101.758 62.833,101.833 62.735,101.833 62.615 C 101.833 62.495,101.983 62.235,102.167 62.038 C 102.350 61.842,102.500 61.565,102.500 61.424 C 102.500 61.282,102.575 61.167,102.667 61.167 C 102.758 61.167,102.833 61.017,102.833 60.833 C 102.833 60.650,102.908 60.500,103.000 60.500 C 103.092 60.500,103.167 60.350,103.167 60.167 C 103.167 59.983,103.242 59.833,103.333 59.833 C 103.425 59.833,103.500 59.683,103.500 59.500 C 103.500 59.317,103.575 59.167,103.667 59.167 C 103.758 59.167,103.833 59.054,103.833 58.917 C 103.833 58.779,103.908 58.667,104.000 58.667 C 104.092 58.667,104.167 58.554,104.167 58.417 C 104.167 58.279,104.242 58.167,104.333 58.167 C 104.425 58.167,104.500 58.017,104.500 57.833 C 104.500 57.650,104.575 57.500,104.667 57.500 C 104.758 57.500,104.833 57.350,104.833 57.167 C 104.833 56.983,104.902 56.833,104.985 56.833 C 105.117 56.833,105.417 56.319,106.228 54.710 C 106.332 54.504,106.473 54.335,106.542 54.335 C 106.610 54.334,106.667 54.183,106.667 54.000 C 106.667 53.817,106.742 53.667,106.833 53.667 C 106.925 53.667,107.000 53.517,107.000 53.333 C 107.000 53.150,107.075 53.000,107.167 53.000 C 107.258 53.000,107.333 52.850,107.333 52.667 C 107.333 52.483,107.394 52.333,107.467 52.333 C 107.541 52.333,107.785 51.959,108.009 51.503 C 108.233 51.046,108.473 50.671,108.542 50.669 C 108.610 50.668,108.667 50.517,108.667 50.333 C 108.667 50.150,108.742 50.000,108.833 50.000 C 108.925 50.000,109.000 49.850,109.000 49.667 C 109.000 49.483,109.075 49.333,109.167 49.333 C 109.258 49.333,109.333 49.183,109.333 49.000 C 109.333 48.817,109.408 48.667,109.500 48.667 C 109.592 48.667,109.667 48.554,109.667 48.417 C 109.667 48.279,109.728 48.167,109.802 48.167 C 109.877 48.167,110.041 47.904,110.167 47.583 C 110.293 47.262,110.457 47.000,110.531 47.000 C 110.606 47.000,110.667 46.886,110.667 46.748 C 110.667 46.503,110.984 45.836,111.180 45.667 C 111.233 45.621,111.383 45.340,111.512 45.042 C 111.642 44.744,111.805 44.500,111.874 44.500 C 111.943 44.500,112.000 44.350,112.000 44.167 C 112.000 43.983,112.075 43.833,112.167 43.833 C 112.258 43.833,112.333 43.683,112.333 43.500 C 112.333 43.317,112.408 43.167,112.500 43.167 C 112.592 43.167,112.667 43.017,112.667 42.833 C 112.667 42.650,112.742 42.500,112.833 42.500 C 112.925 42.500,113.000 42.384,113.000 42.243 C 113.000 42.102,113.150 41.825,113.333 41.628 C 113.517 41.431,113.667 41.172,113.667 41.052 C 113.667 40.932,113.742 40.833,113.833 40.833 C 113.925 40.833,114.000 40.683,114.000 40.500 C 114.000 40.317,114.075 40.167,114.167 40.167 C 114.258 40.167,114.333 40.017,114.333 39.833 C 114.333 39.650,114.408 39.500,114.500 39.500 C 114.592 39.500,114.667 39.358,114.667 39.184 C 114.667 39.011,114.779 38.826,114.917 38.773 C 115.054 38.720,115.167 38.562,115.167 38.422 C 115.167 38.282,115.233 38.167,115.314 38.167 C 115.395 38.167,115.503 38.035,115.554 37.875 C 115.605 37.715,115.914 37.109,116.240 36.528 C 116.566 35.948,116.833 35.367,116.833 35.237 C 116.833 35.106,116.899 35.000,116.980 35.000 C 117.060 35.000,117.219 34.775,117.333 34.500 C 117.447 34.225,117.606 34.000,117.687 34.000 C 117.767 34.000,117.833 33.850,117.833 33.667 C 117.833 33.483,117.908 33.333,118.000 33.333 C 118.092 33.333,118.167 33.183,118.167 33.000 C 118.167 32.817,118.242 32.667,118.333 32.667 C 118.425 32.667,118.500 32.517,118.500 32.333 C 118.500 32.150,118.575 32.000,118.667 32.000 C 118.758 32.000,118.833 31.884,118.833 31.743 C 118.833 31.602,118.983 31.325,119.167 31.128 C 119.350 30.931,119.500 30.672,119.500 30.552 C 119.500 30.432,119.575 30.333,119.667 30.333 C 119.758 30.333,119.833 30.183,119.833 30.000 C 119.833 29.817,119.908 29.667,120.000 29.667 C 120.092 29.667,120.167 29.517,120.167 29.333 C 120.167 29.150,120.242 29.000,120.333 29.000 C 120.425 29.000,120.500 28.856,120.500 28.681 C 120.500 28.505,120.556 28.336,120.625 28.306 C 120.781 28.236,121.323 27.348,121.446 26.958 C 121.497 26.798,121.605 26.667,121.686 26.667 C 121.767 26.667,121.833 26.521,121.833 26.343 C 121.833 26.165,121.908 25.973,122.000 25.917 C 122.092 25.860,122.167 25.668,122.167 25.490 C 122.167 25.312,122.242 25.167,122.333 25.167 C 122.425 25.167,122.500 25.033,122.500 24.870 C 122.500 24.707,122.650 24.465,122.833 24.333 C 123.017 24.201,123.167 23.960,123.167 23.797 C 123.167 23.633,123.242 23.500,123.333 23.500 C 123.425 23.500,123.500 23.350,123.500 23.167 C 123.500 22.983,123.575 22.833,123.667 22.833 C 123.758 22.833,123.833 22.683,123.833 22.500 C 123.833 22.317,123.908 22.167,124.000 22.167 C 124.092 22.167,124.167 22.017,124.167 21.833 C 124.167 21.650,124.242 21.500,124.333 21.500 C 124.425 21.500,124.500 21.402,124.500 21.281 C 124.500 21.161,124.635 20.917,124.801 20.740 C 124.966 20.562,125.322 20.004,125.592 19.500 C 125.862 18.996,126.140 18.558,126.208 18.528 C 126.277 18.497,126.333 18.328,126.333 18.153 C 126.333 17.977,126.390 17.833,126.458 17.832 C 126.527 17.831,126.666 17.663,126.767 17.457 C 126.868 17.251,127.187 16.644,127.476 16.108 C 127.764 15.572,128.000 15.028,128.000 14.900 C 128.000 14.772,128.075 14.667,128.167 14.667 C 128.258 14.667,128.333 14.551,128.333 14.410 C 128.333 14.268,128.483 13.992,128.667 13.795 C 128.850 13.598,129.000 13.339,129.000 13.219 C 129.000 13.098,129.075 13.000,129.167 13.000 C 129.258 13.000,129.333 12.850,129.333 12.667 C 129.333 12.483,129.408 12.333,129.500 12.333 C 129.592 12.333,129.667 12.183,129.667 12.000 C 129.667 11.817,129.742 11.667,129.833 11.667 C 129.925 11.667,130.000 11.517,130.000 11.333 C 130.000 11.150,130.063 11.000,130.140 11.000 C 130.218 11.000,130.461 10.644,130.682 10.208 C 130.903 9.773,131.140 9.392,131.208 9.361 C 131.277 9.331,131.333 9.162,131.333 8.986 C 131.333 8.810,131.408 8.667,131.500 8.667 C 131.592 8.667,131.667 8.517,131.667 8.333 C 131.667 8.150,131.742 8.000,131.833 8.000 C 131.925 8.000,132.000 7.850,132.000 7.667 C 132.000 7.483,132.075 7.333,132.167 7.333 C 132.258 7.333,132.333 7.221,132.333 7.083 C 132.333 6.946,132.408 6.833,132.500 6.833 C 132.592 6.833,132.667 6.683,132.667 6.500 C 132.667 6.317,132.723 6.166,132.792 6.165 C 132.941 6.164,133.333 5.357,133.333 5.050 C 133.333 4.931,133.408 4.833,133.500 4.833 C 133.592 4.833,133.667 4.718,133.667 4.576 C 133.667 4.435,133.817 4.158,134.000 3.962 C 134.183 3.765,134.333 3.505,134.333 3.385 C 134.333 3.265,134.408 3.167,134.500 3.167 C 134.592 3.167,134.667 3.025,134.667 2.851 C 134.667 2.678,134.779 2.492,134.917 2.440 C 135.216 2.325,135.247 1.647,134.967 1.367 C 134.748 1.148,59.496 1.060,59.278 1.278 M146.333 50.167 L 146.333 99.168 177.458 99.125 L 208.583 99.083 208.629 89.833 C 208.655 84.746,208.635 80.415,208.585 80.208 L 208.494 79.833 187.913 79.833 L 167.333 79.833 167.333 69.667 L 167.333 59.500 182.417 59.500 L 197.500 59.500 197.500 50.000 L 197.500 40.500 182.417 40.500 L 167.333 40.500 167.333 30.500 L 167.333 20.500 187.333 20.500 L 207.333 20.500 207.333 11.097 C 207.333 5.925,207.288 1.575,207.232 1.430 C 207.140 1.191,204.298 1.167,176.732 1.167 L 146.333 1.167 146.333 50.167 M219.458 1.334 C 219.182 1.507,219.167 4.022,219.167 50.342 L 219.167 99.167 229.667 99.167 L 240.167 99.167 240.167 83.083 L 240.167 67.000 246.924 67.000 L 253.682 67.000 254.091 67.409 C 254.316 67.634,254.500 67.934,254.500 68.076 C 254.500 68.217,254.575 68.333,254.667 68.333 C 254.758 68.333,254.833 68.446,254.833 68.583 C 254.833 68.721,254.908 68.833,255.000 68.833 C 255.092 68.833,255.167 68.946,255.167 69.083 C 255.167 69.221,255.242 69.333,255.333 69.333 C 255.425 69.333,255.500 69.432,255.500 69.552 C 255.500 69.672,255.650 69.931,255.833 70.128 C 256.017 70.325,256.167 70.585,256.167 70.706 C 256.167 70.827,256.317 71.035,256.500 71.167 C 256.683 71.299,256.833 71.524,256.833 71.667 C 256.833 71.810,256.983 72.035,257.167 72.167 C 257.350 72.299,257.500 72.540,257.500 72.703 C 257.500 72.867,257.575 73.000,257.667 73.000 C 257.758 73.000,257.833 73.098,257.833 73.219 C 257.833 73.339,257.983 73.598,258.167 73.795 C 258.350 73.992,258.500 74.252,258.500 74.373 C 258.500 74.494,258.650 74.701,258.833 74.833 C 259.017 74.965,259.167 75.207,259.167 75.370 C 259.167 75.533,259.242 75.667,259.333 75.667 C 259.425 75.667,259.500 75.779,259.500 75.917 C 259.500 76.054,259.575 76.167,259.667 76.167 C 259.758 76.167,259.833 76.265,259.833 76.385 C 259.833 76.505,259.965 76.752,260.125 76.934 C 260.495 77.353,260.993 78.163,261.113 78.542 C 261.164 78.702,261.263 78.833,261.333 78.833 C 261.402 78.833,261.553 79.058,261.667 79.333 C 261.781 79.608,261.940 79.833,262.020 79.833 C 262.101 79.833,262.167 79.932,262.167 80.052 C 262.167 80.172,262.298 80.416,262.458 80.594 C 262.619 80.771,262.856 81.123,262.986 81.375 C 263.117 81.627,263.285 81.833,263.361 81.833 C 263.438 81.833,263.500 81.948,263.500 82.089 C 263.500 82.229,263.612 82.387,263.750 82.440 C 263.887 82.492,264.000 82.626,264.000 82.736 C 264.000 82.847,264.150 83.098,264.333 83.295 C 264.517 83.492,264.667 83.752,264.667 83.873 C 264.667 83.994,264.817 84.201,265.000 84.333 C 265.183 84.465,265.333 84.690,265.333 84.833 C 265.333 84.976,265.483 85.201,265.667 85.333 C 265.850 85.465,266.000 85.693,266.000 85.839 C 266.000 85.985,266.150 86.265,266.333 86.462 C 266.517 86.658,266.667 86.935,266.667 87.076 C 266.667 87.218,266.742 87.333,266.833 87.333 C 266.925 87.333,267.000 87.446,267.000 87.583 C 267.000 87.721,267.075 87.833,267.167 87.833 C 267.258 87.833,267.333 87.946,267.333 88.083 C 267.333 88.221,267.408 88.333,267.500 88.333 C 267.592 88.333,267.667 88.432,267.667 88.552 C 267.667 88.672,267.817 88.931,268.000 89.128 C 268.183 89.325,268.333 89.585,268.333 89.706 C 268.333 89.827,268.483 90.035,268.667 90.167 C 268.850 90.299,269.000 90.506,269.000 90.627 C 269.000 90.748,269.150 91.008,269.333 91.205 C 269.517 91.402,269.667 91.661,269.667 91.781 C 269.667 91.902,269.742 92.000,269.833 92.000 C 269.925 92.000,270.000 92.098,270.000 92.219 C 270.000 92.339,270.150 92.598,270.333 92.795 C 270.517 92.992,270.667 93.252,270.667 93.373 C 270.667 93.494,270.817 93.701,271.000 93.833 C 271.183 93.965,271.333 94.190,271.333 94.333 C 271.333 94.476,271.483 94.701,271.667 94.833 C 271.850 94.965,272.000 95.207,272.000 95.370 C 272.000 95.533,272.075 95.667,272.167 95.667 C 272.258 95.667,272.333 95.779,272.333 95.917 C 272.333 96.054,272.408 96.167,272.500 96.167 C 272.592 96.167,272.667 96.235,272.667 96.318 C 272.667 96.549,273.540 97.833,273.696 97.833 C 273.772 97.833,273.833 97.949,273.833 98.091 C 273.833 98.233,274.017 98.533,274.242 98.758 L 274.652 99.167 285.576 99.167 L 296.500 99.167 296.500 98.667 C 296.500 98.392,296.425 98.167,296.333 98.167 C 296.242 98.167,296.167 98.068,296.167 97.948 C 296.167 97.828,296.035 97.584,295.875 97.406 C 295.715 97.229,295.477 96.877,295.347 96.625 C 295.217 96.373,295.011 96.167,294.889 96.167 C 294.766 96.167,294.667 96.051,294.667 95.910 C 294.667 95.768,294.517 95.492,294.333 95.295 C 294.150 95.098,294.000 94.801,294.000 94.635 C 294.000 94.469,293.938 94.333,293.861 94.333 C 293.785 94.333,293.617 94.127,293.486 93.875 C 293.356 93.623,293.119 93.271,292.958 93.094 C 292.798 92.916,292.667 92.672,292.667 92.552 C 292.667 92.432,292.592 92.333,292.500 92.333 C 292.408 92.333,292.333 92.221,292.333 92.083 C 292.333 91.946,292.258 91.833,292.167 91.833 C 292.075 91.833,292.000 91.721,292.000 91.583 C 292.000 91.446,291.925 91.333,291.833 91.333 C 291.742 91.333,291.667 91.235,291.667 91.115 C 291.667 90.995,291.535 90.751,291.375 90.573 C 291.215 90.395,290.977 90.044,290.847 89.792 C 290.717 89.540,290.548 89.333,290.472 89.333 C 290.396 89.333,290.333 89.235,290.333 89.115 C 290.333 88.995,290.202 88.751,290.042 88.573 C 289.881 88.395,289.644 88.044,289.514 87.792 C 289.383 87.540,289.215 87.333,289.139 87.333 C 289.062 87.333,289.000 87.200,289.000 87.037 C 289.000 86.874,288.850 86.632,288.667 86.500 C 288.483 86.368,288.333 86.143,288.333 86.000 C 288.333 85.857,288.183 85.632,288.000 85.500 C 287.817 85.368,287.667 85.161,287.667 85.040 C 287.667 84.918,287.517 84.658,287.333 84.462 C 287.150 84.265,287.000 84.005,287.000 83.885 C 287.000 83.765,286.925 83.667,286.833 83.667 C 286.742 83.667,286.667 83.554,286.667 83.417 C 286.667 83.279,286.592 83.167,286.500 83.167 C 286.408 83.167,286.333 83.066,286.333 82.942 C 286.333 82.819,286.190 82.589,286.015 82.430 C 285.840 82.272,285.606 81.923,285.495 81.655 C 285.384 81.386,285.189 81.167,285.063 81.167 C 284.937 81.167,284.833 81.033,284.833 80.870 C 284.833 80.707,284.683 80.465,284.500 80.333 C 284.317 80.201,284.167 79.976,284.167 79.833 C 284.167 79.690,284.017 79.465,283.833 79.333 C 283.650 79.201,283.500 78.976,283.500 78.833 C 283.500 78.690,283.350 78.465,283.167 78.333 C 282.983 78.201,282.833 77.994,282.833 77.873 C 282.833 77.752,282.683 77.492,282.500 77.295 C 282.317 77.098,282.167 76.839,282.167 76.719 C 282.167 76.598,282.092 76.500,282.000 76.500 C 281.908 76.500,281.833 76.402,281.833 76.281 C 281.833 76.161,281.683 75.902,281.500 75.705 C 281.317 75.508,281.167 75.303,281.167 75.249 C 281.167 75.196,280.792 74.596,280.333 73.917 C 279.875 73.237,279.500 72.603,279.500 72.508 C 279.500 72.412,279.425 72.333,279.333 72.333 C 279.242 72.333,279.167 72.221,279.167 72.083 C 279.167 71.946,279.092 71.833,279.000 71.833 C 278.908 71.833,278.833 71.721,278.833 71.583 C 278.833 71.446,278.758 71.333,278.667 71.333 C 278.575 71.333,278.500 71.235,278.500 71.115 C 278.500 70.995,278.369 70.751,278.208 70.573 C 278.048 70.395,277.810 70.044,277.680 69.792 C 277.550 69.540,277.381 69.333,277.305 69.333 C 277.229 69.333,277.167 69.235,277.167 69.115 C 277.167 68.995,277.035 68.751,276.875 68.573 C 276.715 68.395,276.477 68.044,276.347 67.792 C 276.217 67.540,276.057 67.333,275.992 67.333 C 275.927 67.333,275.781 67.108,275.667 66.833 C 275.553 66.558,275.394 66.333,275.313 66.333 C 275.233 66.333,275.167 66.231,275.167 66.107 C 275.167 65.982,274.979 65.739,274.750 65.567 C 274.521 65.395,274.333 65.122,274.333 64.960 C 274.333 64.799,274.258 64.667,274.167 64.667 C 274.075 64.667,274.000 64.554,274.000 64.417 C 274.000 64.279,273.925 64.167,273.833 64.167 C 273.742 64.167,273.667 64.068,273.667 63.948 C 273.667 63.828,273.513 63.564,273.324 63.362 C 272.950 62.960,273.171 62.500,273.738 62.500 C 273.882 62.500,274.000 62.425,274.000 62.333 C 274.000 62.242,274.150 62.167,274.333 62.167 C 274.517 62.167,274.667 62.092,274.667 62.000 C 274.667 61.908,274.764 61.833,274.883 61.833 C 275.190 61.833,275.997 61.441,275.999 61.292 C 275.999 61.223,276.112 61.167,276.250 61.167 C 276.387 61.167,276.500 61.092,276.500 61.000 C 276.500 60.908,276.633 60.833,276.797 60.833 C 276.960 60.833,277.201 60.683,277.333 60.500 C 277.465 60.317,277.655 60.167,277.755 60.167 C 277.855 60.167,278.083 60.033,278.260 59.870 C 278.438 59.708,278.840 59.393,279.155 59.171 C 279.469 58.950,280.137 58.370,280.639 57.884 C 281.141 57.398,281.615 57.000,281.693 57.000 C 281.770 57.000,281.833 56.918,281.833 56.817 C 281.833 56.716,282.058 56.424,282.333 56.167 C 282.608 55.910,282.833 55.655,282.833 55.600 C 282.833 55.545,283.133 55.191,283.500 54.813 C 283.867 54.436,284.167 54.040,284.167 53.933 C 284.167 53.827,284.317 53.632,284.500 53.500 C 284.683 53.368,284.833 53.126,284.833 52.963 C 284.833 52.800,284.934 52.667,285.057 52.667 C 285.180 52.667,285.460 52.310,285.680 51.875 C 285.899 51.440,286.128 51.046,286.188 51.000 C 286.364 50.866,287.333 48.795,287.333 48.554 C 287.333 48.433,287.408 48.333,287.500 48.333 C 287.592 48.333,287.667 48.188,287.667 48.010 C 287.667 47.832,287.742 47.640,287.833 47.583 C 287.925 47.527,288.000 47.302,288.000 47.083 C 288.000 46.865,288.075 46.640,288.167 46.583 C 288.258 46.527,288.333 46.302,288.333 46.083 C 288.333 45.865,288.408 45.640,288.500 45.583 C 288.592 45.527,288.667 45.260,288.667 44.990 C 288.667 44.721,288.742 44.500,288.833 44.500 C 288.925 44.500,289.000 44.204,289.000 43.843 C 289.000 43.482,289.075 43.140,289.167 43.083 C 289.258 43.027,289.333 42.652,289.333 42.250 C 289.333 41.848,289.408 41.473,289.500 41.417 C 289.592 41.360,289.667 40.798,289.667 40.167 C 289.667 39.536,289.742 38.973,289.833 38.917 C 289.937 38.852,290.000 37.224,290.000 34.583 C 290.000 31.943,289.937 30.314,289.833 30.250 C 289.742 30.193,289.667 29.589,289.667 28.907 C 289.667 28.191,289.596 27.667,289.500 27.667 C 289.408 27.667,289.333 27.371,289.333 27.010 C 289.333 26.649,289.258 26.307,289.167 26.250 C 289.075 26.193,289.000 25.814,289.000 25.407 C 289.000 25.000,288.925 24.667,288.833 24.667 C 288.742 24.667,288.667 24.442,288.667 24.167 C 288.667 23.892,288.592 23.667,288.500 23.667 C 288.408 23.667,288.333 23.446,288.333 23.177 C 288.333 22.907,288.258 22.640,288.167 22.583 C 288.075 22.527,288.000 22.302,288.000 22.083 C 288.000 21.865,287.925 21.640,287.833 21.583 C 287.742 21.527,287.667 21.335,287.667 21.157 C 287.667 20.979,287.592 20.833,287.500 20.833 C 287.408 20.833,287.333 20.683,287.333 20.500 C 287.333 20.317,287.258 20.167,287.167 20.167 C 287.075 20.167,287.000 20.078,287.000 19.970 C 287.000 19.655,286.288 18.167,286.137 18.167 C 286.062 18.167,286.000 18.017,286.000 17.833 C 286.000 17.650,285.934 17.500,285.854 17.500 C 285.773 17.500,285.618 17.286,285.510 17.024 C 285.401 16.762,285.055 16.274,284.740 15.940 C 284.424 15.606,284.167 15.248,284.167 15.144 C 284.167 15.041,284.035 14.834,283.874 14.686 C 283.713 14.538,283.469 14.197,283.332 13.928 C 283.047 13.369,278.770 9.000,278.507 9.000 C 278.411 9.000,278.333 8.925,278.333 8.833 C 278.333 8.742,278.221 8.667,278.083 8.667 C 277.946 8.667,277.833 8.604,277.833 8.528 C 277.833 8.452,277.627 8.284,277.375 8.154 C 277.123 8.025,276.795 7.787,276.647 7.626 C 276.499 7.465,276.293 7.333,276.189 7.333 C 276.085 7.333,275.999 7.277,275.999 7.208 C 275.997 7.059,275.190 6.667,274.883 6.667 C 274.764 6.667,274.667 6.592,274.667 6.500 C 274.667 6.408,274.533 6.333,274.370 6.333 C 274.207 6.333,273.965 6.183,273.833 6.000 C 273.701 5.817,273.460 5.667,273.297 5.667 C 273.133 5.667,273.000 5.592,273.000 5.500 C 273.000 5.408,272.850 5.333,272.667 5.333 C 272.483 5.333,272.333 5.258,272.333 5.167 C 272.333 5.075,272.108 5.000,271.833 5.000 C 271.558 5.000,271.333 4.925,271.333 4.833 C 271.333 4.742,271.183 4.667,271.000 4.667 C 270.817 4.667,270.667 4.592,270.667 4.500 C 270.667 4.408,270.517 4.333,270.333 4.333 C 270.150 4.333,270.000 4.258,270.000 4.167 C 270.000 4.075,269.783 4.000,269.518 4.000 C 269.243 4.000,268.994 3.893,268.940 3.750 C 268.887 3.612,268.690 3.500,268.503 3.500 C 268.316 3.500,268.032 3.434,267.873 3.354 C 267.391 3.111,266.415 2.833,266.040 2.833 C 265.845 2.833,265.640 2.758,265.583 2.667 C 265.527 2.575,265.189 2.500,264.833 2.500 C 264.477 2.500,264.140 2.425,264.083 2.333 C 264.027 2.242,263.647 2.167,263.240 2.167 C 262.833 2.167,262.500 2.098,262.500 2.013 C 262.500 1.481,220.290 0.815,219.458 1.334 M351.667 19.667 C 351.667 19.761,352.136 19.833,352.740 19.833 C 353.331 19.833,353.860 19.908,353.917 20.000 C 353.973 20.092,354.353 20.167,354.760 20.167 C 355.167 20.167,355.500 20.242,355.500 20.333 C 355.500 20.425,355.800 20.500,356.167 20.500 C 356.533 20.500,356.833 20.575,356.833 20.667 C 356.833 20.758,357.054 20.833,357.323 20.833 C 357.593 20.833,357.860 20.908,357.917 21.000 C 357.973 21.092,358.203 21.167,358.427 21.167 C 358.650 21.167,358.833 21.242,358.833 21.333 C 358.833 21.425,359.058 21.500,359.333 21.500 C 359.608 21.500,359.833 21.575,359.833 21.667 C 359.833 21.758,359.983 21.833,360.167 21.833 C 360.350 21.833,360.500 21.908,360.500 22.000 C 360.500 22.092,360.646 22.167,360.823 22.167 C 361.001 22.167,361.193 22.242,361.250 22.333 C 361.307 22.425,361.499 22.500,361.677 22.500 C 361.854 22.500,362.000 22.575,362.000 22.667 C 362.000 22.758,362.150 22.833,362.333 22.833 C 362.517 22.833,362.667 22.890,362.668 22.958 C 362.669 23.099,363.469 23.500,363.746 23.500 C 363.845 23.500,364.035 23.650,364.167 23.833 C 364.299 24.017,364.524 24.167,364.667 24.167 C 364.810 24.167,365.035 24.317,365.167 24.500 C 365.299 24.683,365.505 24.833,365.625 24.833 C 365.862 24.833,365.948 24.911,368.919 27.802 C 370.020 28.873,371.105 30.012,371.330 30.333 C 371.555 30.654,371.835 31.016,371.953 31.137 C 372.070 31.258,372.167 31.423,372.167 31.504 C 372.167 31.585,372.354 31.839,372.583 32.068 C 372.813 32.297,373.000 32.601,373.000 32.742 C 373.000 32.884,373.075 33.000,373.167 33.000 C 373.258 33.000,373.333 33.115,373.333 33.255 C 373.333 33.396,373.446 33.554,373.583 33.606 C 373.721 33.659,373.833 33.828,373.833 33.981 C 373.833 34.134,373.983 34.368,374.167 34.500 C 374.350 34.632,374.500 34.911,374.500 35.120 C 374.500 35.329,374.575 35.500,374.667 35.500 C 374.758 35.500,374.833 35.650,374.833 35.833 C 374.833 36.017,374.908 36.167,375.000 36.167 C 375.092 36.167,375.167 36.354,375.167 36.583 C 375.167 36.813,375.242 37.000,375.333 37.000 C 375.425 37.000,375.500 37.188,375.500 37.417 C 375.500 37.646,375.575 37.833,375.667 37.833 C 375.758 37.833,375.833 38.021,375.833 38.250 C 375.833 38.479,375.908 38.667,376.000 38.667 C 376.092 38.667,376.167 38.892,376.167 39.167 C 376.167 39.442,376.242 39.667,376.333 39.667 C 376.425 39.667,376.500 39.887,376.500 40.157 C 376.500 40.426,376.575 40.693,376.667 40.750 C 376.758 40.807,376.833 41.069,376.833 41.333 C 376.833 41.598,376.908 41.860,377.000 41.917 C 377.092 41.973,377.167 42.353,377.167 42.760 C 377.167 43.167,377.242 43.500,377.333 43.500 C 377.426 43.500,377.500 43.944,377.500 44.500 C 377.500 45.056,377.574 45.500,377.667 45.500 C 377.769 45.500,377.833 46.330,377.833 47.657 C 377.833 48.915,377.903 49.857,378.000 49.917 C 378.092 49.973,378.167 50.198,378.167 50.417 C 378.167 50.635,378.092 50.860,378.000 50.917 C 377.903 50.976,377.833 51.891,377.833 53.093 C 377.833 54.364,377.769 55.167,377.667 55.167 C 377.574 55.167,377.500 55.608,377.500 56.157 C 377.500 56.701,377.425 57.193,377.333 57.250 C 377.242 57.307,377.167 57.686,377.167 58.093 C 377.167 58.500,377.092 58.833,377.000 58.833 C 376.908 58.833,376.833 59.133,376.833 59.500 C 376.833 59.867,376.758 60.167,376.667 60.167 C 376.575 60.167,376.500 60.392,376.500 60.667 C 376.500 60.942,376.425 61.167,376.333 61.167 C 376.242 61.167,376.167 61.392,376.167 61.667 C 376.167 61.942,376.092 62.167,376.000 62.167 C 375.908 62.167,375.833 62.354,375.833 62.583 C 375.833 62.813,375.758 63.000,375.667 63.000 C 375.575 63.000,375.500 63.188,375.500 63.417 C 375.500 63.646,375.425 63.833,375.333 63.833 C 375.242 63.833,375.167 64.021,375.167 64.250 C 375.167 64.479,375.092 64.667,375.000 64.667 C 374.908 64.667,374.833 64.817,374.833 65.000 C 374.833 65.183,374.758 65.333,374.667 65.333 C 374.575 65.333,374.500 65.483,374.500 65.667 C 374.500 65.850,374.425 66.000,374.333 66.000 C 374.242 66.000,374.167 66.122,374.167 66.272 C 374.167 66.422,374.030 66.666,373.863 66.814 C 373.696 66.962,373.415 67.344,373.238 67.662 C 373.061 67.980,372.785 68.388,372.625 68.568 C 372.465 68.749,372.333 68.960,372.333 69.039 C 372.333 69.118,372.146 69.369,371.917 69.598 C 371.688 69.828,371.500 70.082,371.500 70.163 C 371.500 70.401,367.690 74.332,367.458 74.333 C 367.390 74.333,367.333 74.414,367.333 74.512 C 367.333 74.750,366.906 75.167,366.662 75.167 C 366.555 75.167,366.257 75.392,366.000 75.667 C 365.743 75.942,365.430 76.167,365.303 76.167 C 365.177 76.167,364.965 76.317,364.833 76.500 C 364.701 76.683,364.460 76.833,364.297 76.833 C 364.133 76.833,364.000 76.908,364.000 77.000 C 364.000 77.092,363.850 77.167,363.667 77.167 C 363.483 77.167,363.333 77.242,363.333 77.333 C 363.333 77.425,363.221 77.500,363.083 77.500 C 362.946 77.500,362.833 77.575,362.833 77.667 C 362.833 77.758,362.683 77.833,362.500 77.833 C 362.317 77.833,362.167 77.908,362.167 78.000 C 362.167 78.092,362.017 78.167,361.833 78.167 C 361.650 78.167,361.500 78.242,361.500 78.333 C 361.500 78.425,361.350 78.500,361.167 78.500 C 360.983 78.500,360.833 78.575,360.833 78.667 C 360.833 78.758,360.688 78.833,360.510 78.833 C 360.332 78.833,360.140 78.908,360.083 79.000 C 360.027 79.092,359.797 79.167,359.573 79.167 C 359.350 79.167,359.167 79.242,359.167 79.333 C 359.167 79.425,358.942 79.500,358.667 79.500 C 358.392 79.500,358.167 79.575,358.167 79.667 C 358.167 79.758,357.942 79.833,357.667 79.833 C 357.392 79.833,357.167 79.908,357.167 80.000 C 357.167 80.092,356.867 80.167,356.500 80.167 C 356.133 80.167,355.833 80.242,355.833 80.333 C 355.833 80.425,355.533 80.500,355.167 80.500 C 354.800 80.500,354.500 80.575,354.500 80.667 C 354.500 80.762,354.003 80.833,353.343 80.833 C 352.707 80.833,352.140 80.908,352.083 81.000 C 352.020 81.102,350.696 81.167,348.667 81.167 C 346.637 81.167,345.313 81.102,345.250 81.000 C 345.193 80.908,344.668 80.833,344.083 80.833 C 343.498 80.833,342.973 80.758,342.917 80.667 C 342.860 80.575,342.518 80.500,342.157 80.500 C 341.796 80.500,341.500 80.425,341.500 80.333 C 341.500 80.242,341.200 80.167,340.833 80.167 C 340.467 80.167,340.167 80.092,340.167 80.000 C 340.167 79.908,339.942 79.833,339.667 79.833 C 339.392 79.833,339.167 79.758,339.167 79.667 C 339.167 79.575,338.979 79.500,338.750 79.500 C 338.521 79.500,338.333 79.425,338.333 79.333 C 338.333 79.242,338.186 79.167,338.005 79.167 C 337.825 79.167,337.410 79.017,337.083 78.833 C 336.757 78.650,336.380 78.500,336.245 78.500 C 336.110 78.500,336.000 78.425,336.000 78.333 C 336.000 78.242,335.902 78.167,335.783 78.167 C 335.477 78.167,334.670 77.775,334.668 77.625 C 334.667 77.556,334.517 77.500,334.333 77.500 C 334.150 77.500,334.000 77.425,334.000 77.333 C 334.000 77.242,333.867 77.167,333.703 77.167 C 333.540 77.167,333.299 77.017,333.167 76.833 C 333.035 76.650,332.810 76.500,332.667 76.500 C 332.524 76.500,332.299 76.350,332.167 76.167 C 332.035 75.983,331.823 75.833,331.697 75.833 C 331.570 75.833,331.257 75.608,331.000 75.333 C 330.743 75.058,330.413 74.833,330.266 74.833 C 330.120 74.833,330.000 74.756,330.000 74.661 C 330.000 74.566,329.269 73.756,328.375 72.862 C 327.481 71.967,326.490 70.901,326.173 70.492 C 325.855 70.084,325.537 69.725,325.465 69.694 C 325.392 69.664,325.333 69.543,325.333 69.426 C 325.333 69.309,325.146 69.073,324.917 68.900 C 324.688 68.728,324.500 68.472,324.500 68.331 C 324.500 68.189,324.350 67.965,324.167 67.833 C 323.983 67.701,323.833 67.460,323.833 67.297 C 323.833 67.133,323.758 67.000,323.667 67.000 C 323.575 67.000,323.500 66.850,323.500 66.667 C 323.500 66.483,323.425 66.333,323.333 66.333 C 323.242 66.333,323.167 66.183,323.167 66.000 C 323.167 65.817,323.092 65.667,323.000 65.667 C 322.908 65.667,322.833 65.517,322.833 65.333 C 322.833 65.150,322.758 65.000,322.667 65.000 C 322.575 65.000,322.500 64.854,322.500 64.677 C 322.500 64.499,322.425 64.307,322.333 64.250 C 322.242 64.193,322.167 64.001,322.167 63.823 C 322.167 63.646,322.092 63.500,322.000 63.500 C 321.908 63.500,321.833 63.350,321.833 63.167 C 321.833 62.983,321.758 62.833,321.667 62.833 C 321.575 62.833,321.500 62.608,321.500 62.333 C 321.500 62.058,321.425 61.833,321.333 61.833 C 321.242 61.833,321.167 61.608,321.167 61.333 C 321.167 61.058,321.092 60.833,321.000 60.833 C 320.908 60.833,320.833 60.613,320.833 60.343 C 320.833 60.074,320.758 59.807,320.667 59.750 C 320.575 59.693,320.500 59.356,320.500 59.000 C 320.500 58.644,320.425 58.307,320.333 58.250 C 320.242 58.193,320.167 57.851,320.167 57.490 C 320.167 57.129,320.092 56.833,320.000 56.833 C 319.905 56.833,319.833 56.333,319.833 55.667 C 319.833 55.000,319.762 54.500,319.667 54.500 C 319.560 54.500,319.500 53.059,319.500 50.510 C 319.500 48.030,319.563 46.481,319.667 46.417 C 319.758 46.360,319.833 45.756,319.833 45.073 C 319.833 44.358,319.904 43.833,320.000 43.833 C 320.092 43.833,320.167 43.533,320.167 43.167 C 320.167 42.800,320.242 42.500,320.333 42.500 C 320.425 42.500,320.500 42.204,320.500 41.843 C 320.500 41.482,320.575 41.140,320.667 41.083 C 320.758 41.027,320.833 40.802,320.833 40.583 C 320.833 40.365,320.908 40.140,321.000 40.083 C 321.092 40.027,321.167 39.760,321.167 39.490 C 321.167 39.221,321.242 39.000,321.333 39.000 C 321.425 39.000,321.500 38.817,321.500 38.593 C 321.500 38.369,321.575 38.140,321.667 38.083 C 321.758 38.027,321.833 37.797,321.833 37.573 C 321.833 37.350,321.908 37.167,322.000 37.167 C 322.092 37.167,322.167 37.017,322.167 36.833 C 322.167 36.650,322.242 36.500,322.333 36.500 C 322.425 36.500,322.500 36.354,322.500 36.177 C 322.500 35.999,322.575 35.807,322.667 35.750 C 322.758 35.693,322.833 35.501,322.833 35.323 C 322.833 35.146,322.908 35.000,323.000 35.000 C 323.092 35.000,323.167 34.850,323.167 34.667 C 323.167 34.483,323.242 34.333,323.333 34.333 C 323.425 34.333,323.500 34.200,323.500 34.037 C 323.500 33.874,323.650 33.632,323.833 33.500 C 324.017 33.368,324.167 33.161,324.167 33.040 C 324.167 32.918,324.317 32.658,324.500 32.462 C 324.683 32.265,324.833 32.005,324.833 31.885 C 324.833 31.765,324.941 31.667,325.072 31.667 C 325.203 31.667,325.357 31.523,325.412 31.347 C 325.468 31.171,325.811 30.702,326.174 30.305 C 326.536 29.908,326.833 29.527,326.833 29.457 C 326.833 29.258,329.706 26.462,330.385 26.000 C 330.722 25.771,330.998 25.490,330.999 25.375 C 330.999 25.260,331.120 25.167,331.266 25.167 C 331.413 25.167,331.743 24.942,332.000 24.667 C 332.257 24.392,332.587 24.167,332.734 24.167 C 332.880 24.167,333.000 24.092,333.000 24.000 C 333.000 23.908,333.133 23.833,333.297 23.833 C 333.460 23.833,333.701 23.683,333.833 23.500 C 333.965 23.317,334.207 23.167,334.370 23.167 C 334.533 23.167,334.667 23.092,334.667 23.000 C 334.667 22.908,334.777 22.833,334.912 22.833 C 335.046 22.833,335.424 22.683,335.750 22.500 C 336.076 22.317,336.454 22.167,336.588 22.167 C 336.723 22.167,336.833 22.092,336.833 22.000 C 336.833 21.908,336.983 21.833,337.167 21.833 C 337.350 21.833,337.500 21.758,337.500 21.667 C 337.500 21.575,337.725 21.500,338.000 21.500 C 338.275 21.500,338.500 21.425,338.500 21.333 C 338.500 21.242,338.725 21.167,339.000 21.167 C 339.275 21.167,339.500 21.092,339.500 21.000 C 339.500 20.908,339.725 20.833,340.000 20.833 C 340.275 20.833,340.500 20.758,340.500 20.667 C 340.500 20.575,340.800 20.500,341.167 20.500 C 341.533 20.500,341.833 20.425,341.833 20.333 C 341.833 20.242,342.208 20.167,342.667 20.167 C 343.125 20.167,343.500 20.092,343.500 20.000 C 343.500 19.906,343.969 19.833,344.573 19.833 C 345.164 19.833,345.693 19.758,345.750 19.667 C 345.812 19.566,347.002 19.500,348.760 19.500 C 350.587 19.500,351.667 19.562,351.667 19.667 M254.833 20.667 C 254.833 20.762,255.330 20.833,255.990 20.833 C 256.626 20.833,257.193 20.908,257.250 21.000 C 257.307 21.092,257.686 21.167,258.093 21.167 C 258.500 21.167,258.833 21.242,258.833 21.333 C 258.833 21.425,259.058 21.500,259.333 21.500 C 259.608 21.500,259.833 21.575,259.833 21.667 C 259.833 21.758,260.058 21.833,260.333 21.833 C 260.608 21.833,260.833 21.908,260.833 22.000 C 260.833 22.092,260.983 22.167,261.167 22.167 C 261.350 22.167,261.500 22.242,261.500 22.333 C 261.500 22.425,261.650 22.500,261.833 22.500 C 262.017 22.500,262.167 22.575,262.167 22.667 C 262.167 22.758,262.317 22.833,262.500 22.833 C 262.683 22.833,262.833 22.908,262.833 23.000 C 262.833 23.092,262.946 23.167,263.083 23.167 C 263.221 23.167,263.333 23.242,263.333 23.333 C 263.333 23.425,263.450 23.500,263.593 23.500 C 263.967 23.500,266.369 26.016,266.820 26.880 C 266.950 27.129,267.119 27.333,267.195 27.333 C 267.271 27.333,267.333 27.483,267.333 27.667 C 267.333 27.850,267.408 28.000,267.500 28.000 C 267.592 28.000,267.667 28.150,267.667 28.333 C 267.667 28.517,267.742 28.667,267.833 28.667 C 267.925 28.667,268.000 28.892,268.000 29.167 C 268.000 29.442,268.075 29.667,268.167 29.667 C 268.258 29.667,268.333 29.892,268.333 30.167 C 268.333 30.442,268.408 30.667,268.500 30.667 C 268.592 30.667,268.667 30.967,268.667 31.333 C 268.667 31.700,268.742 32.000,268.833 32.000 C 268.938 32.000,269.000 33.083,269.000 34.917 C 269.000 36.750,268.938 37.833,268.833 37.833 C 268.742 37.833,268.667 38.133,268.667 38.500 C 268.667 38.867,268.592 39.167,268.500 39.167 C 268.408 39.167,268.333 39.392,268.333 39.667 C 268.333 39.942,268.258 40.167,268.167 40.167 C 268.075 40.167,268.000 40.264,268.000 40.383 C 268.000 40.690,267.608 41.497,267.458 41.499 C 267.390 41.499,267.333 41.650,267.333 41.833 C 267.333 42.017,267.271 42.167,267.195 42.167 C 267.119 42.167,266.950 42.373,266.820 42.625 C 266.690 42.877,266.377 43.282,266.125 43.525 C 265.873 43.768,265.667 44.014,265.667 44.072 C 265.667 44.291,264.500 45.333,264.256 45.333 C 264.115 45.333,264.000 45.408,264.000 45.500 C 264.000 45.592,263.887 45.667,263.750 45.667 C 263.612 45.667,263.500 45.742,263.500 45.833 C 263.500 45.925,263.387 46.000,263.250 46.000 C 263.112 46.000,263.000 46.075,263.000 46.167 C 263.000 46.258,262.850 46.333,262.667 46.333 C 262.483 46.333,262.333 46.390,262.333 46.459 C 262.333 46.529,262.090 46.685,261.792 46.807 C 260.646 47.275,260.408 47.377,260.127 47.519 C 259.968 47.600,259.649 47.667,259.419 47.667 C 259.189 47.667,259.000 47.742,259.000 47.833 C 259.000 47.925,258.742 48.000,258.427 48.000 C 258.111 48.000,257.807 48.075,257.750 48.167 C 257.693 48.258,257.243 48.333,256.750 48.333 C 256.257 48.333,255.807 48.408,255.750 48.500 C 255.684 48.607,252.887 48.667,247.907 48.667 L 240.167 48.667 240.167 34.583 L 240.167 20.500 247.500 20.500 C 252.278 20.500,254.833 20.558,254.833 20.667 "
              stroke="none" fill="#000" fill-rule="evenodd"></path>
        <path d="M31.458 1.454 C 31.206 1.491,31.000 1.592,31.000 1.678 C 31.000 1.763,30.817 1.833,30.593 1.833 C 30.369 1.833,30.140 1.908,30.083 2.000 C 30.027 2.092,29.835 2.167,29.657 2.167 C 29.479 2.167,29.333 2.242,29.333 2.333 C 29.333 2.425,29.183 2.500,29.000 2.500 C 28.817 2.500,28.667 2.575,28.667 2.667 C 28.667 2.758,28.551 2.833,28.409 2.833 C 28.267 2.833,27.840 2.983,27.461 3.167 C 27.081 3.350,26.672 3.500,26.552 3.500 C 26.432 3.500,26.333 3.612,26.333 3.750 C 26.333 3.917,26.167 4.000,25.833 4.000 C 25.558 4.000,25.333 4.075,25.333 4.167 C 25.333 4.258,25.183 4.333,25.000 4.333 C 24.817 4.333,24.667 4.408,24.667 4.500 C 24.667 4.592,24.521 4.667,24.343 4.667 C 24.165 4.667,23.973 4.742,23.917 4.833 C 23.860 4.925,23.631 5.000,23.407 5.000 C 23.183 5.000,23.000 5.075,23.000 5.167 C 23.000 5.258,22.813 5.333,22.583 5.333 C 22.354 5.333,22.167 5.408,22.167 5.500 C 22.167 5.592,22.017 5.667,21.833 5.667 C 21.650 5.667,21.500 5.742,21.500 5.833 C 21.500 5.925,21.275 6.000,21.000 6.000 C 20.725 6.000,20.500 6.075,20.500 6.167 C 20.500 6.258,20.350 6.333,20.167 6.333 C 19.983 6.333,19.833 6.408,19.833 6.500 C 19.833 6.592,19.683 6.667,19.500 6.667 C 19.317 6.667,19.167 6.742,19.167 6.833 C 19.167 6.925,18.942 7.000,18.667 7.000 C 18.392 7.000,18.167 7.075,18.167 7.167 C 18.167 7.258,18.017 7.333,17.833 7.333 C 17.650 7.333,17.500 7.408,17.500 7.500 C 17.500 7.592,17.350 7.667,17.167 7.667 C 16.983 7.667,16.833 7.742,16.833 7.833 C 16.833 7.925,16.608 8.000,16.333 8.000 C 16.058 8.000,15.833 8.075,15.833 8.167 C 15.833 8.258,15.683 8.333,15.500 8.333 C 15.317 8.333,15.167 8.408,15.167 8.500 C 15.167 8.592,15.017 8.667,14.833 8.667 C 14.650 8.667,14.500 8.742,14.500 8.833 C 14.500 8.925,14.275 9.000,14.000 9.000 C 13.725 9.000,13.500 9.075,13.500 9.167 C 13.500 9.258,13.354 9.333,13.177 9.333 C 12.999 9.333,12.807 9.408,12.750 9.500 C 12.693 9.592,12.501 9.667,12.323 9.667 C 12.146 9.667,12.000 9.742,12.000 9.833 C 12.000 9.925,11.850 10.000,11.667 10.000 C 11.337 10.000,11.333 10.111,11.333 19.333 L 11.333 28.667 5.667 28.667 L 0.000 28.667 0.000 38.167 L 0.000 47.667 5.667 47.667 L 11.333 47.667 11.333 59.407 C 11.333 67.054,11.391 71.183,11.500 71.250 C 11.592 71.307,11.667 71.949,11.667 72.677 C 11.667 73.448,11.736 74.000,11.833 74.000 C 11.925 74.000,12.000 74.375,12.000 74.833 C 12.000 75.292,12.075 75.667,12.167 75.667 C 12.258 75.667,12.333 75.962,12.333 76.323 C 12.333 76.685,12.408 77.027,12.500 77.083 C 12.592 77.140,12.669 77.351,12.671 77.552 C 12.677 78.094,13.438 80.229,13.650 80.300 C 13.751 80.334,13.833 80.542,13.833 80.764 C 13.833 80.985,13.908 81.167,14.000 81.167 C 14.092 81.167,14.167 81.280,14.167 81.419 C 14.167 81.558,14.234 81.801,14.316 81.961 C 14.398 82.120,14.709 82.756,15.007 83.375 C 15.306 83.994,15.614 84.500,15.692 84.500 C 15.770 84.500,15.833 84.650,15.833 84.833 C 15.833 85.017,15.894 85.167,15.969 85.167 C 16.043 85.167,16.207 85.429,16.333 85.750 C 16.459 86.071,16.623 86.333,16.698 86.333 C 16.772 86.333,16.833 86.446,16.833 86.583 C 16.833 86.721,16.908 86.833,17.000 86.833 C 17.092 86.833,17.167 86.929,17.167 87.047 C 17.167 87.164,17.317 87.368,17.500 87.500 C 17.683 87.632,17.833 87.836,17.833 87.953 C 17.833 88.071,17.908 88.167,18.000 88.167 C 18.092 88.167,18.167 88.244,18.167 88.338 C 18.167 88.582,22.041 92.407,22.655 92.770 C 22.937 92.936,23.167 93.131,23.167 93.203 C 23.167 93.275,23.279 93.333,23.417 93.333 C 23.554 93.333,23.667 93.408,23.667 93.500 C 23.667 93.592,23.800 93.667,23.963 93.667 C 24.126 93.667,24.368 93.817,24.500 94.000 C 24.632 94.183,24.857 94.333,25.000 94.333 C 25.143 94.333,25.368 94.483,25.500 94.667 C 25.632 94.850,25.874 95.000,26.037 95.000 C 26.200 95.000,26.333 95.075,26.333 95.167 C 26.333 95.258,26.483 95.333,26.667 95.333 C 26.850 95.333,27.000 95.408,27.000 95.500 C 27.000 95.592,27.150 95.667,27.333 95.667 C 27.517 95.667,27.667 95.739,27.667 95.828 C 27.667 96.008,29.374 96.833,29.745 96.833 C 29.874 96.833,30.027 96.908,30.083 97.000 C 30.140 97.092,30.369 97.167,30.593 97.167 C 30.817 97.167,31.000 97.242,31.000 97.333 C 31.000 97.425,31.183 97.500,31.407 97.500 C 31.631 97.500,31.860 97.575,31.917 97.667 C 31.973 97.758,32.236 97.833,32.500 97.833 C 32.764 97.833,33.027 97.908,33.083 98.000 C 33.140 98.092,33.482 98.167,33.843 98.167 C 34.204 98.167,34.500 98.234,34.500 98.317 C 34.500 98.464,35.174 98.586,37.000 98.770 C 37.504 98.821,37.988 98.931,38.075 99.015 C 38.162 99.098,39.001 99.167,39.940 99.167 C 40.898 99.167,41.692 99.240,41.750 99.333 C 42.046 99.812,44.833 99.436,44.833 98.917 C 44.833 98.859,45.015 98.572,45.237 98.281 C 45.593 97.813,46.356 96.481,46.899 95.376 C 47.001 95.171,47.140 95.002,47.208 95.001 C 47.277 95.001,47.333 94.850,47.333 94.667 C 47.333 94.483,47.408 94.333,47.500 94.333 C 47.592 94.333,47.667 94.218,47.667 94.076 C 47.667 93.935,47.817 93.658,48.000 93.462 C 48.183 93.265,48.333 93.005,48.333 92.885 C 48.333 92.765,48.408 92.667,48.500 92.667 C 48.592 92.667,48.667 92.517,48.667 92.333 C 48.667 92.150,48.742 92.000,48.833 92.000 C 48.925 92.000,49.000 91.884,49.000 91.743 C 49.000 91.602,49.150 91.325,49.333 91.128 C 49.517 90.931,49.667 90.672,49.667 90.552 C 49.667 90.432,49.742 90.333,49.833 90.333 C 49.925 90.333,50.000 90.183,50.000 90.000 C 50.000 89.817,50.075 89.667,50.167 89.667 C 50.258 89.667,50.333 89.517,50.333 89.333 C 50.333 89.150,50.408 89.000,50.500 89.000 C 50.592 89.000,50.667 88.888,50.667 88.750 C 50.667 88.612,50.728 88.500,50.802 88.500 C 50.877 88.500,51.041 88.237,51.167 87.917 C 51.293 87.596,51.457 87.333,51.531 87.333 C 51.606 87.333,51.667 87.183,51.667 87.000 C 51.667 86.817,51.742 86.667,51.833 86.667 C 51.925 86.667,52.000 86.554,52.000 86.417 C 52.000 86.279,52.075 86.167,52.167 86.167 C 52.258 86.167,52.333 86.017,52.333 85.833 C 52.333 85.650,52.408 85.500,52.500 85.500 C 52.592 85.500,52.667 85.350,52.667 85.167 C 52.667 84.983,52.742 84.833,52.833 84.833 C 52.925 84.833,53.000 84.718,53.000 84.576 C 53.000 84.435,53.150 84.158,53.333 83.962 C 53.517 83.765,53.667 83.505,53.667 83.385 C 53.667 83.265,53.742 83.167,53.833 83.167 C 53.925 83.167,54.000 83.017,54.000 82.833 C 54.000 82.650,54.075 82.500,54.167 82.500 C 54.258 82.500,54.333 82.350,54.333 82.167 C 54.333 81.983,54.408 81.833,54.500 81.833 C 54.592 81.833,54.667 81.608,54.667 81.333 L 54.667 80.833 52.343 80.833 C 50.974 80.833,49.977 80.765,49.917 80.667 C 49.860 80.575,49.331 80.500,48.740 80.500 C 48.136 80.500,47.667 80.427,47.667 80.333 C 47.667 80.242,47.334 80.167,46.927 80.167 C 46.519 80.167,46.140 80.092,46.083 80.000 C 46.027 79.908,45.722 79.833,45.407 79.833 C 45.091 79.833,44.833 79.758,44.833 79.667 C 44.833 79.575,44.608 79.500,44.333 79.500 C 44.058 79.500,43.833 79.425,43.833 79.333 C 43.833 79.242,43.683 79.167,43.500 79.167 C 43.317 79.167,43.167 79.092,43.167 79.000 C 43.167 78.908,42.942 78.833,42.667 78.833 C 42.392 78.833,42.167 78.758,42.167 78.667 C 42.167 78.575,42.017 78.500,41.833 78.500 C 41.650 78.500,41.500 78.425,41.500 78.333 C 41.500 78.242,41.402 78.167,41.281 78.167 C 41.161 78.167,40.902 78.017,40.705 77.833 C 40.508 77.650,40.232 77.500,40.090 77.500 C 39.949 77.500,39.833 77.438,39.833 77.361 C 39.833 77.285,39.628 77.117,39.376 76.986 C 39.125 76.856,38.685 76.525,38.398 76.250 C 37.641 75.524,37.184 75.167,37.009 75.167 C 36.925 75.167,36.811 75.026,36.756 74.854 C 36.702 74.682,36.466 74.325,36.232 74.062 C 35.998 73.799,35.615 73.302,35.381 72.958 C 35.147 72.615,34.891 72.333,34.811 72.333 C 34.732 72.333,34.667 72.183,34.667 72.000 C 34.667 71.817,34.592 71.667,34.500 71.667 C 34.408 71.667,34.333 71.554,34.333 71.417 C 34.333 71.279,34.258 71.167,34.167 71.167 C 34.075 71.167,34.000 71.021,34.000 70.843 C 34.000 70.665,33.925 70.473,33.833 70.417 C 33.742 70.360,33.667 70.168,33.667 69.990 C 33.667 69.812,33.592 69.667,33.500 69.667 C 33.408 69.667,33.333 69.484,33.333 69.260 C 33.333 69.036,33.258 68.807,33.167 68.750 C 33.075 68.693,33.000 68.426,33.000 68.157 C 33.000 67.887,32.925 67.667,32.833 67.667 C 32.742 67.667,32.667 67.292,32.667 66.833 C 32.667 66.375,32.592 66.000,32.500 66.000 C 32.391 66.000,32.333 62.833,32.333 56.833 L 32.333 47.667 40.167 47.667 L 48.000 47.667 48.000 38.167 L 48.000 28.667 40.168 28.667 L 32.335 28.667 32.293 15.056 C 32.265 6.146,32.192 1.434,32.083 1.415 C 31.992 1.399,31.710 1.417,31.458 1.454 "
              stroke="none" fill="#00ce7d" fill-rule="evenodd"></path>
        <path stroke="none" fill="#100e4bc" fill-rule="evenodd"></path>
        <path stroke="none" fill="#100e4bc" fill-rule="evenodd"></path>
        <path stroke="none" fill="#100e4bc" fill-rule="evenodd"></path>
    </g>
</svg>